<mxfile host="app.diagrams.net" agent="Mozilla/5.0 (Windows NT 10.0; Win64; x64) AppleWebKit/537.36 (KHTML, like Gecko) Chrome/131.0.0.0 Safari/537.36" version="26.0.4">
  <diagram name="Seite-1" id="_R_mCXXve6HYbpGxG6Xb">
    <mxGraphModel dx="954" dy="476" grid="1" gridSize="10" guides="1" tooltips="1" connect="1" arrows="1" fold="1" page="1" pageScale="1" pageWidth="827" pageHeight="1169" math="0" shadow="0">
      <root>
        <mxCell id="0" />
        <mxCell id="1" parent="0" />
        <mxCell id="mI9LWZnYo24f3FENjrIx-1" value="&lt;b&gt;&lt;font style=&quot;font-size: 14px;&quot;&gt;x&lt;/font&gt;&lt;/b&gt;" style="rounded=0;whiteSpace=wrap;html=1;rotation=0;" vertex="1" parent="1">
          <mxGeometry x="50" y="120" width="30" height="200" as="geometry" />
        </mxCell>
        <mxCell id="mI9LWZnYo24f3FENjrIx-5" value="" style="shape=trapezoid;perimeter=trapezoidPerimeter;whiteSpace=wrap;html=1;fixedSize=1;rotation=90;size=50;" vertex="1" parent="1">
          <mxGeometry x="70" y="177.18" width="200" height="85.63" as="geometry" />
        </mxCell>
        <mxCell id="mI9LWZnYo24f3FENjrIx-6" value="" style="shape=trapezoid;perimeter=trapezoidPerimeter;whiteSpace=wrap;html=1;fixedSize=1;rotation=-90;size=50;" vertex="1" parent="1">
          <mxGeometry x="280" y="177.18" width="200" height="85.63" as="geometry" />
        </mxCell>
        <mxCell id="mI9LWZnYo24f3FENjrIx-7" value="&lt;b&gt;&lt;font style=&quot;font-size: 14px;&quot;&gt;y&lt;/font&gt;&lt;/b&gt;" style="rounded=0;whiteSpace=wrap;html=1;rotation=0;" vertex="1" parent="1">
          <mxGeometry x="470" y="120" width="30" height="200" as="geometry" />
        </mxCell>
        <mxCell id="mI9LWZnYo24f3FENjrIx-8" value="&lt;b&gt;&lt;font style=&quot;font-size: 14px;&quot;&gt;h&lt;/font&gt;&lt;/b&gt;" style="rounded=0;whiteSpace=wrap;html=1;rotation=0;" vertex="1" parent="1">
          <mxGeometry x="260" y="175" width="30" height="90" as="geometry" />
        </mxCell>
        <mxCell id="mI9LWZnYo24f3FENjrIx-10" value="" style="endArrow=classic;html=1;rounded=0;entryX=0;entryY=0.5;entryDx=0;entryDy=0;exitX=0.5;exitY=0;exitDx=0;exitDy=0;" edge="1" parent="1">
          <mxGeometry width="50" height="50" relative="1" as="geometry">
            <mxPoint x="290" y="219.5" as="sourcePoint" />
            <mxPoint x="337" y="219.5" as="targetPoint" />
          </mxGeometry>
        </mxCell>
        <mxCell id="mI9LWZnYo24f3FENjrIx-11" value="" style="endArrow=classic;html=1;rounded=0;entryX=0;entryY=0.5;entryDx=0;entryDy=0;exitX=0.5;exitY=0;exitDx=0;exitDy=0;" edge="1" parent="1">
          <mxGeometry width="50" height="50" relative="1" as="geometry">
            <mxPoint x="213" y="219.5" as="sourcePoint" />
            <mxPoint x="260" y="219.5" as="targetPoint" />
          </mxGeometry>
        </mxCell>
        <mxCell id="mI9LWZnYo24f3FENjrIx-12" value="" style="endArrow=classic;html=1;rounded=0;entryX=0;entryY=0.5;entryDx=0;entryDy=0;exitX=0.5;exitY=0;exitDx=0;exitDy=0;" edge="1" parent="1">
          <mxGeometry width="50" height="50" relative="1" as="geometry">
            <mxPoint x="80" y="219.5" as="sourcePoint" />
            <mxPoint x="127" y="219.5" as="targetPoint" />
          </mxGeometry>
        </mxCell>
        <mxCell id="mI9LWZnYo24f3FENjrIx-13" value="" style="endArrow=classic;html=1;rounded=0;exitX=0.5;exitY=1;exitDx=0;exitDy=0;entryX=0;entryY=0.5;entryDx=0;entryDy=0;" edge="1" parent="1" source="mI9LWZnYo24f3FENjrIx-6" target="mI9LWZnYo24f3FENjrIx-7">
          <mxGeometry width="50" height="50" relative="1" as="geometry">
            <mxPoint x="390" y="270" as="sourcePoint" />
            <mxPoint x="440" y="220" as="targetPoint" />
          </mxGeometry>
        </mxCell>
        <UserObject label="&lt;b&gt;&lt;font style=&quot;font-size: 14px;&quot;&gt;Encoder&lt;span style=&quot;color: rgba(0, 0, 0, 0); font-family: monospace; text-wrap-mode: nowrap;&quot;&gt;%3CmxGraphModel%3E%3Croot%3E%3CmxCell%20id%3D%220%22%2F%3E%3CmxCell%20id%3D%221%22%20parent%3D%220%22%2F%3E%3CmxCell%20id%3D%222%22%20value%3D%22%22%20style%3D%22endArrow%3Dclassic%3Bhtml%3D1%3Brounded%3D0%3BentryX%3D0%3BentryY%3D0.5%3BentryDx%3D0%3BentryDy%3D0%3BexitX%3D0.5%3BexitY%3D0%3BexitDx%3D0%3BexitDy%3D0%3B%22%20edge%3D%221%22%20parent%3D%221%22%3E%3CmxGeometry%20width%3D%2250%22%20height%3D%2250%22%20relative%3D%221%22%20as%3D%22geometry%22%3E%3CmxPoint%20x%3D%22423%22%20y%3D%22220%22%20as%3D%22sourcePoint%22%2F%3E%3CmxPoint%20x%3D%22470%22%20y%3D%22220%22%20as%3D%22targetPoint%22%2F%3E%3C%2FmxGeometry%3E%3C%2FmxCell%3E%3C%2Froot%3E%3C%2FmxGraphModel%3E&lt;/span&gt;&lt;/font&gt;&lt;/b&gt;" placeholders="1" name="Variable" id="mI9LWZnYo24f3FENjrIx-15">
          <mxCell style="text;html=1;strokeColor=none;fillColor=none;align=center;verticalAlign=middle;whiteSpace=wrap;overflow=hidden;" vertex="1" parent="1">
            <mxGeometry x="140" y="90" width="60" height="20" as="geometry" />
          </mxCell>
        </UserObject>
        <UserObject label="&lt;span style=&quot;font-size: 14px;&quot;&gt;&lt;b&gt;Decoder&lt;/b&gt;&lt;/span&gt;" placeholders="1" name="Variable" id="mI9LWZnYo24f3FENjrIx-18">
          <mxCell style="text;html=1;strokeColor=none;fillColor=none;align=center;verticalAlign=middle;whiteSpace=wrap;overflow=hidden;" vertex="1" parent="1">
            <mxGeometry x="350" y="90" width="60" height="20" as="geometry" />
          </mxCell>
        </UserObject>
        <UserObject label="&lt;span style=&quot;font-size: 14px;&quot;&gt;&lt;b&gt;Input&lt;/b&gt;&lt;/span&gt;" placeholders="1" name="Variable" id="mI9LWZnYo24f3FENjrIx-19">
          <mxCell style="text;html=1;strokeColor=none;fillColor=none;align=center;verticalAlign=middle;whiteSpace=wrap;overflow=hidden;" vertex="1" parent="1">
            <mxGeometry x="35" y="90" width="60" height="20" as="geometry" />
          </mxCell>
        </UserObject>
        <UserObject label="&lt;span style=&quot;font-size: 14px;&quot;&gt;&lt;b&gt;Output&lt;/b&gt;&lt;/span&gt;" placeholders="1" name="Variable" id="mI9LWZnYo24f3FENjrIx-20">
          <mxCell style="text;html=1;strokeColor=none;fillColor=none;align=center;verticalAlign=middle;whiteSpace=wrap;overflow=hidden;" vertex="1" parent="1">
            <mxGeometry x="455" y="90" width="60" height="20" as="geometry" />
          </mxCell>
        </UserObject>
        <mxCell id="mI9LWZnYo24f3FENjrIx-21" value="&lt;span style=&quot;color: rgb(16, 20, 24); font-family: &amp;quot;Linux Libertine&amp;quot;, &amp;quot;Palatino Linotype&amp;quot;, Georgia, Times, serif; font-size: 21px; font-style: normal; font-variant-ligatures: normal; font-variant-caps: normal; font-weight: 400; letter-spacing: normal; orphans: 2; text-align: start; text-indent: 0px; text-transform: none; widows: 2; word-spacing: 0px; -webkit-text-stroke-width: 0px; white-space: normal; background-color: rgb(255, 255, 255); text-decoration-thickness: initial; text-decoration-style: initial; text-decoration-color: initial; display: inline !important; float: none;&quot;&gt;Î¦&lt;/span&gt;" style="text;whiteSpace=wrap;html=1;" vertex="1" parent="1">
          <mxGeometry x="160" y="200" width="20" height="40" as="geometry" />
        </mxCell>
      </root>
    </mxGraphModel>
  </diagram>
</mxfile>
